<?xml version="1.0" standalone="no"?>
<!DOCTYPE svg PUBLIC "-//W3C//DTD SVG 20010904//EN"
 "http://www.w3.org/TR/2001/REC-SVG-20010904/DTD/svg10.dtd">
<svg version="1.0" xmlns="http://www.w3.org/2000/svg"
 width="300.000000pt" height="300.000000pt" viewBox="0 0 300.000000 300.000000"
 preserveAspectRatio="xMidYMid meet">
<metadata>
Created by potrace 1.10, written by Peter Selinger 2001-2011
</metadata>
<g transform="translate(0.000000,300.000000) scale(0.100000,-0.100000)"
fill="#000000" stroke="none">
<path d="M1334 2667 c-108 -36 -172 -75 -250 -154 -122 -123 -185 -286 -170
-442 7 -76 45 -198 75 -240 14 -20 21 -45 21 -78 0 -71 16 -118 55 -159 55
-58 44 -132 -27 -185 -55 -42 -97 -54 -183 -53 -119 0 -186 41 -215 130 -19
57 2 112 75 195 102 116 133 205 105 304 -25 89 -130 150 -214 125 -110 -33
-153 -175 -76 -251 l28 -29 -39 -42 c-212 -228 -126 -573 169 -679 54 -19 90
-24 182 -25 63 -2 116 -3 118 -3 1 -1 -4 -14 -12 -30 -9 -16 -20 -74 -25 -130
-11 -115 -33 -165 -94 -215 -31 -25 -49 -31 -101 -34 -86 -6 -149 26 -184 93
-46 89 26 185 116 154 88 -30 69 -149 -23 -149 -23 0 -27 -3 -15 -10 51 -33
131 13 144 83 11 57 -24 123 -78 148 -82 37 -166 15 -224 -58 -40 -50 -56
-112 -47 -182 29 -228 273 -343 501 -235 120 57 187 150 240 335 14 52 30 98
34 102 10 11 68 -139 82 -212 20 -109 -6 -215 -70 -285 -38 -40 -81 -56 -155
-56 -68 0 -115 14 -159 49 -46 37 -42 4 7 -48 65 -69 129 -96 230 -95 65 0 91
5 137 26 100 46 173 143 202 266 l13 57 8 -50 c18 -114 106 -234 202 -277 26
-12 78 -23 114 -26 96 -7 159 17 226 84 64 63 69 85 11 47 -57 -38 -175 -45
-234 -15 -89 46 -133 126 -134 243 0 76 6 103 53 233 l25 68 15 -29 c9 -16 22
-62 31 -103 28 -136 54 -189 124 -252 92 -83 218 -119 341 -98 166 29 271 144
273 298 1 141 -75 232 -195 232 -44 0 -62 -6 -94 -29 -54 -39 -80 -104 -63
-155 12 -38 49 -73 86 -82 27 -7 64 3 64 17 0 6 -5 7 -11 4 -19 -12 -67 16
-80 47 -17 40 -3 77 39 101 44 26 88 14 119 -32 29 -43 29 -65 1 -121 -52
-102 -205 -126 -295 -47 -48 43 -61 76 -72 201 -6 58 -17 121 -25 140 l-14 34
76 -5 c211 -14 395 85 475 254 29 62 32 76 32 164 0 90 -3 100 -37 171 -21 41
-57 94 -81 118 l-44 44 28 24 c59 49 58 151 -2 211 -37 37 -64 45 -130 39
-115 -11 -186 -130 -153 -256 16 -61 34 -89 111 -179 83 -96 101 -158 64 -219
-45 -74 -137 -111 -246 -99 -109 13 -171 52 -207 133 l-19 43 45 50 c50 56 70
110 64 173 -3 32 2 51 23 86 67 111 89 285 53 424 -35 136 -135 267 -260 342
-107 63 -153 76 -289 80 -106 4 -128 1 -191 -19z m341 -77 c254 -96 389 -337
330 -588 -8 -35 -22 -76 -30 -91 -18 -36 -8 -47 16 -18 28 33 23 3 -8 -55 -24
-45 -29 -48 -38 -32 -20 37 -105 114 -127 115 -13 1 -45 2 -73 2 -27 0 -44 2
-37 5 6 2 12 10 12 17 0 17 96 65 131 65 40 0 59 -24 59 -75 0 -35 5 -47 21
-55 19 -10 20 -10 10 9 -6 11 -11 42 -11 69 0 59 -16 77 -70 76 -114 -3 -228
-106 -253 -229 -6 -26 -5 -28 6 -11 67 103 153 129 241 71 82 -54 90 -183 14
-251 -12 -12 -33 -25 -44 -28 -21 -7 -22 -8 -7 -63 30 -117 79 -174 183 -215
78 -30 226 -31 290 -2 92 43 144 108 157 199 9 66 -18 124 -99 218 -38 44 -79
99 -90 121 -28 55 -28 124 2 165 27 39 43 47 105 55 43 5 54 3 79 -18 16 -13
30 -36 31 -51 l3 -27 -26 25 c-53 50 -99 52 -149 5 -17 -16 -23 -33 -23 -64 0
-46 1 -48 133 -173 79 -74 121 -161 121 -250 1 -101 -25 -163 -98 -237 -76
-77 -141 -103 -271 -111 -103 -6 -192 12 -261 52 -68 40 -132 111 -148 163
-15 47 -15 47 -15 12 -1 -52 40 -128 99 -185 106 -102 136 -165 150 -319 11
-116 34 -171 91 -219 21 -19 62 -41 90 -50 136 -44 260 4 311 121 19 43 19 46
3 99 -10 30 -32 69 -51 90 -19 20 -34 37 -34 38 0 9 40 -10 61 -28 86 -76 72
-218 -31 -311 -64 -58 -121 -79 -215 -79 -94 0 -151 21 -215 79 -53 48 -83
108 -105 209 -32 149 -65 202 -169 274 -82 56 -136 112 -165 169 -23 46 -51
147 -52 193 0 20 -7 2 -15 -45 -27 -149 -88 -237 -214 -310 -89 -51 -118 -98
-174 -287 -48 -161 -128 -248 -267 -289 -76 -23 -120 -25 -138 -7 -6 6 -24 12
-39 12 -15 0 -26 6 -25 12 1 6 -4 14 -13 17 -8 3 -12 1 -9 -4 3 -6 -1 -7 -9
-4 -9 3 -14 9 -11 13 2 4 -15 24 -39 44 -54 45 -79 96 -77 160 2 89 65 177
127 177 13 0 7 -8 -19 -23 -22 -13 -39 -28 -40 -33 0 -5 -6 -23 -14 -41 -7
-18 -13 -45 -13 -60 1 -37 33 -107 64 -138 25 -25 53 -35 40 -13 -4 7 -3 8 5
4 6 -4 9 -11 6 -16 -7 -12 22 -21 84 -26 38 -4 57 -1 62 8 6 9 9 9 9 1 0 -27
99 19 147 69 51 53 75 119 83 232 10 134 28 172 138 289 52 55 94 110 100 129
17 56 21 93 11 108 -6 11 -9 5 -9 -21 0 -72 -81 -159 -205 -222 -45 -22 -102
-37 -200 -51 -16 -3 5 -3 48 0 46 2 97 12 125 24 26 10 54 21 62 22 8 2 18 7
22 13 4 5 9 7 12 4 3 -3 -12 -27 -34 -53 -22 -27 -40 -51 -40 -55 0 -3 -4 -12
-9 -20 -7 -12 -14 -10 -36 8 -23 17 -41 21 -105 21 -163 0 -280 43 -362 132
-27 29 -48 57 -47 62 0 6 3 5 6 -1 2 -7 11 -13 19 -13 8 0 14 -4 14 -9 0 -5 7
-12 16 -15 15 -6 15 -4 0 16 -9 13 -29 48 -44 78 -23 47 -27 67 -27 140 1 112
27 163 146 283 97 98 113 131 85 184 -22 43 -66 59 -106 39 -29 -14 -31 -14
-26 1 5 13 4 14 -9 3 -11 -9 -15 -9 -15 -1 0 12 36 29 81 38 36 7 91 -21 112
-56 24 -40 22 -113 -4 -163 -12 -23 -48 -72 -80 -110 -70 -81 -87 -113 -96
-173 -9 -70 13 -132 67 -186 61 -61 128 -84 235 -83 90 2 146 19 208 64 57 41
87 88 104 163 13 57 13 63 -2 72 -66 39 -95 85 -95 151 0 142 177 213 270 108
102 -117 32 -271 -125 -275 -27 0 -28 -1 -9 -9 38 -15 101 0 142 36 39 33 62
85 62 140 0 32 -55 147 -95 200 -66 86 -220 129 -257 71 -10 -16 -9 -77 2
-102 7 -15 9 -10 9 23 1 65 14 82 62 82 46 0 114 -31 129 -60 9 -17 8 -20 -13
-20 -33 0 -102 -25 -137 -50 -15 -11 -30 -17 -33 -13 -2 5 -2 2 -1 -5 2 -7 -2
-25 -8 -40 -6 -15 -14 -43 -18 -62 l-8 -35 -1 33 c0 18 -19 68 -42 112 -49 97
-49 141 0 63 18 -29 34 -53 36 -53 2 0 -10 30 -25 68 -37 90 -45 168 -26 260
40 191 192 348 384 397 82 21 220 14 297 -15z m-1014 -622 c28 -51 -20 -99
-73 -72 -30 16 -37 49 -15 76 24 31 70 29 88 -4z m1755 24 c23 -15 34 -50 24
-76 -5 -14 -14 -26 -19 -26 -5 0 -16 -3 -25 -6 -9 -3 -25 5 -40 19 -22 22 -24
29 -15 56 12 34 49 51 75 33z m-1627 -30 c0 -9 1 -24 2 -32 5 -23 -12 -90 -22
-90 -5 0 -6 12 -2 28 5 15 8 48 8 74 0 25 3 44 7 42 4 -2 7 -12 7 -22z m1638
-126 c-2 -6 2 -23 10 -39 l14 -28 -50 36 c-77 56 -80 64 -21 52 30 -6 49 -14
47 -21z m-1769 9 c3 -3 -2 -5 -11 -5 -9 0 -20 -6 -24 -12 -4 -7 -15 -19 -24
-26 -15 -11 -17 -8 -21 23 l-4 35 40 -5 c22 -3 42 -7 44 -10z m91 -67 c-13
-17 -25 -26 -27 -20 -2 6 7 25 20 42 30 41 37 20 7 -22z m-107 -125 c-10 -16
-22 -36 -25 -45 -4 -10 -11 -18 -17 -18 -8 0 6 31 37 83 2 4 9 7 14 7 6 0 2
-12 -9 -27z m518 -122 c0 -16 -7 -42 -16 -57 -15 -27 -15 -27 -10 -4 3 14 6
42 6 63 0 23 4 36 10 32 6 -3 10 -19 10 -34z m-556 -43 c9 -34 7 -60 -3 -54
-11 7 -20 76 -10 76 4 0 9 -10 13 -22z m26 -78 c0 -5 21 -23 46 -40 25 -18 42
-35 38 -38 -4 -4 -9 -1 -11 6 -3 6 -8 10 -13 7 -7 -4 -80 60 -80 70 0 3 5 5
10 5 6 0 10 -4 10 -10z m915 -145 c38 -75 85 -126 159 -172 51 -33 126 -111
126 -133 0 -15 -11 -12 -32 7 -14 13 -21 14 -30 5 -23 -23 -39 -14 -35 21 5
42 -14 70 -73 106 -26 16 -70 52 -99 80 -57 58 -66 55 -22 -6 30 -42 94 -98
147 -128 l31 -18 -18 -56 c-9 -31 -29 -87 -43 -126 -19 -53 -26 -89 -26 -151
0 -190 87 -306 244 -324 l61 -7 -65 -2 c-105 -2 -197 51 -258 147 -52 81 -73
170 -78 322 -2 74 -10 176 -17 225 l-13 90 -12 -65 c-7 -36 -17 -81 -23 -100
-6 -19 -14 -112 -18 -206 -7 -161 -9 -176 -36 -230 -59 -120 -162 -185 -288
-183 l-62 2 55 7 c145 19 228 118 238 281 6 105 -32 279 -62 279 -5 0 -22 12
-37 26 -31 29 -64 26 -74 -7 -7 -20 -25 -27 -25 -9 0 22 40 86 72 117 18 17
56 43 83 58 62 33 127 102 160 172 13 29 26 53 29 53 2 0 20 -34 41 -75z m490
-128 c9 -8 4 -17 -18 -36 -31 -26 -31 -26 -63 33 l-16 28 43 -7 c23 -4 48 -12
54 -18z m-525 -320 c5 -116 3 -154 -7 -160 -6 -4 -19 -14 -27 -23 -14 -13 -15
0 -11 129 2 79 7 157 11 173 19 81 27 54 34 -119z m-430 -128 c-17 -30 -90
-109 -103 -109 -5 0 5 15 24 33 19 17 45 49 59 69 26 39 39 44 20 7z"/>
<path d="M1420 2583 c-154 -26 -293 -129 -365 -272 -28 -56 -55 -162 -55 -219
0 -58 18 -25 25 46 8 82 56 195 112 264 38 47 147 121 206 140 178 55 340 22
463 -94 49 -46 116 -143 120 -173 0 -5 2 -16 2 -24 2 -10 5 -11 15 -3 9 8 13
7 14 -6 1 -9 9 -44 17 -77 l16 -60 -5 65 c-10 130 -108 279 -236 353 -84 49
-232 76 -329 60z"/>
<path d="M1175 1795 c-38 -37 -35 -95 6 -129 39 -33 79 -33 118 0 40 34 44 98
8 132 -34 32 -100 30 -132 -3z m134 -19 c5 -27 -26 -48 -50 -35 -19 10 -25 39
-12 53 14 14 58 1 62 -18z m-75 -51 l37 -34 -26 -7 c-30 -7 -65 18 -60 44 2 9
4 20 4 25 1 12 6 9 45 -28z"/>
<path d="M1695 1795 c-28 -27 -34 -88 -12 -116 54 -70 167 -31 167 58 0 49
-37 83 -90 83 -30 0 -47 -6 -65 -25z m131 -18 c9 -27 -21 -50 -47 -36 -24 12
-25 45 -2 57 22 13 41 5 49 -21z m-75 -49 c35 -39 36 -48 7 -48 -39 0 -74 50
-51 73 10 11 12 9 44 -25z"/>
<path d="M519 1638 c-31 -66 -34 -188 -5 -261 10 -27 20 -47 21 -45 2 2 -3 32
-12 68 -19 83 -10 209 18 262 6 11 9 22 7 24 -3 2 -15 -19 -29 -48z"/>
<path d="M1679 1580 c13 -11 33 -20 45 -20 11 0 31 -3 44 -6 13 -4 22 -2 22 5
0 6 -17 11 -37 11 -21 0 -51 7 -68 15 l-30 15 24 -20z"/>
<path d="M1793 1487 c1 -21 5 -41 9 -43 4 -3 8 -13 8 -23 0 -9 9 -27 20 -39
11 -12 20 -24 20 -28 0 -14 46 -46 109 -76 59 -28 75 -31 166 -32 140 -1 213
24 271 94 l29 35 -40 -34 c-71 -62 -116 -76 -240 -76 -118 0 -147 7 -226 57
-56 34 -96 89 -114 155 l-14 48 2 -38z"/>
<path d="M1730 1307 c0 -31 36 -90 102 -163 34 -39 76 -92 91 -119 15 -26 30
-45 33 -42 13 12 -53 114 -118 185 -39 42 -79 94 -89 117 -10 22 -19 32 -19
22z"/>
<path d="M590 1242 c0 -13 93 -59 135 -67 17 -3 2 5 -33 19 -35 13 -72 32 -83
41 -10 10 -19 13 -19 7z"/>
<path d="M1435 1169 c-27 -33 -71 -74 -97 -90 -59 -38 -62 -46 -7 -18 50 25
135 103 155 141 23 45 3 32 -51 -33z"/>
<path d="M1603 773 c-14 -41 -16 -134 -3 -163 9 -21 10 -17 5 25 -3 28 -1 75
4 105 10 62 8 74 -6 33z"/>
</g>
</svg>
